#!OML:ASF I:\Actors\actors\Patient Classification 1\Patient 1\Session 1\Subject1.ASF
:FULLY-SPECIFIED
:DEGREES
799
root 0.823225 17.6673 8.54038 12.4298 -4.18121 0.0531014
lowerback 16.3463 -9.26778 6.99053
upperback 2.81956 -10.3957 8.72486
thorax -5.54854 -5.16569 7.72175
lowerneck -17.5538 -6.11964 -3.89974
upperneck 29.5042 -7.0281 -2.44048
head 12.812 -3.89378 -1.41023
rclavicle -8.34896e-014 1.22451e-013
rhumerus -33.047 43.3021 -82.381
rradius 61.8873
rwrist -8.92276
rhand -9.19756 -31.9498
rfingers 7.12502
rthumb 16.7563 -61.2467
lclavicle -8.34896e-014 1.22451e-013
lhumerus -10.7021 -72.1593 119.928
lradius 23.8834
lwrist -0.580193
lhand -20.7485 -25.387
lfingers 7.12502
lthumb 5.61721 4.51852
rfemur -19.7318 22.5897 10.4903
rtibia 15.7063
rfoot -12.1737 -20.9984
rtoes -3.31926
lfemur -5.27046 -33.0005 -15.7347
ltibia -3.51189
lfoot -14.7885 42.0211
ltoes 2.25022
800
root 0.822939 17.667 8.54325 12.4171 -4.12701 0.0321115
lowerback 16.3449 -9.26217 7.01391
upperback 2.76338 -10.3787 8.72192
thorax -5.615 -5.15632 7.71035
lowerneck -17.4922 -6.10668 -3.74232
upperneck 29.4509 -6.99252 -2.65965
head 12.7596 -3.89121 -1.50877
rclavicle 4.6118e-014 -9.38264e-014
rhumerus -33.6185 42.9356 -82.6935
rradius 62.5708
rwrist -9.21674
rhand -8.54332 -33.0891
rfingers 7.12502
rthumb 17.386 -62.3315
lclavicle 4.6118e-014 -9.38264e-014
lhumerus -11.2822 -72.6476 120.413
lradius 24.1374
lwrist -0.468507
lhand -21.4852 -25.0634
lfingers 7.12502
lthumb 4.90582 4.85982
rfemur -19.6547 22.5856 10.5371
rtibia 15.6474
rfoot -12.1584 -21.0251
rtoes -3.23398
lfemur -5.20029 -33.166 -15.7296
ltibia -3.58775
lfoot -14.7898 42.1631
ltoes 2.45541
801
root 0.822841 17.6666 8.54545 12.4136 -4.07043 0.00254673
lowerback 16.3268 -9.25246 7.03392
upperback 2.72059 -10.3607 8.71985
thorax -5.65728 -5.14695 7.69632
lowerneck -17.4609 -6.11487 -3.63761
upperneck 29.3885 -7.01739 -2.72362
head 12.7193 -3.89944 -1.55035
rclavicle 7.15625e-015 -9.54166e-015
rhumerus -33.8652 42.2724 -82.6258
rradius 62.8088
rwrist -7.94132
rhand -8.92335 -32.828
rfingers 7.12502
rthumb 17.0202 -62.1024
lclavicle 7.15625e-015 -9.54166e-015
lhumerus -12.0768 -73.63 121.03
lradius 24.4956
lwrist -0.520576
lhand -22.9268 -24.5404
lfingers 7.12502
lthumb 3.51383 5.41041
rfemur -19.5844 22.5409 10.5907
rtibia 15.5693
rfoot -12.1339 -21.0285
rtoes -3.23659
lfemur -5.13611 -33.3799 -15.7101
ltibia -3.65649
lfoot -14.8846 42.3246
ltoes 2.74561
802
root 0.823106 17.6663 8.54677 12.4139 -4.0482 -0.00791587
lowerback 16.2849 -9.22654 7.02303
upperback 2.69928 -10.3332 8.71071
thorax -5.66014 -5.13343 7.68091
lowerneck -17.4298 -6.12269 -3.58164
upperneck 29.35 -7.05671 -2.69218
head 12.6955 -3.9064 -1.55106
rclavicle 9.30312e-014 -1.03368e-013
rhumerus -34.3231 42.1423 -82.8804
rradius 63.418
rwrist -7.65857
rhand -7.34419 -33.6781
rfingers 7.12502
rthumb 18.5398 -62.8146
lclavicle 9.30312e-014 -1.03368e-013
lhumerus -12.4436 -74.0542 121.309
lradius 24.8172
lwrist -0.137481
lhand -23.0604 -24.7177
lfingers 7.12502
lthumb 3.38478 5.23517
rfemur -19.5561 22.4966 10.6122
rtibia 15.5336
rfoot -12.0953 -21.0135
rtoes -3.37334
lfemur -5.10067 -33.4578 -15.7146
ltibia -3.69956
lfoot -14.8826 42.4162
ltoes 2.64185
803
root 0.824007 17.6661 8.5473 12.4109 -4.04551 -0.0093941
lowerback 16.2579 -9.18988 7.00349
upperback 2.67836 -10.2911 8.70103
thorax -5.67022 -5.11249 7.6691
lowerneck -17.3185 -6.10187 -3.4952
upperneck 29.2436 -7.05176 -2.70875
head 12.6237 -3.89775 -1.56205
rclavicle 3.89618e-014 -1.65389e-013
rhumerus -34.734 42.0381 -83.077
rradius 63.5715
rwrist -6.77313
rhand -7.31349 -32.872
rfingers 7.12502
rthumb 18.5693 -62.0057
lclavicle 3.89618e-014 -1.65389e-013
lhumerus -12.3524 -73.8128 121.254
lradius 25.0073
lwrist 0.592859
lhand -21.7773 -25.3048
lfingers 7.12502
lthumb 4.62385 4.62471
rfemur -19.5412 22.4988 10.6126
rtibia 15.5196
rfoot -12.0901 -21.0175
rtoes -3.38175
lfemur -5.0895 -33.5312 -15.733
ltibia -3.69521
lfoot -14.8547 42.5258
ltoes 2.51064
804
root 0.825213 17.6661 8.5475 12.4071 -4.05678 -0.0203712
lowerback 16.2442 -9.15651 7.00027
upperback 2.65046 -10.2482 8.68164
thorax -5.69977 -5.09092 7.64163
lowerneck -17.2704 -6.08731 -3.4918
upperneck 29.2668 -7.06439 -2.61499
head 12.627 -3.89069 -1.52812
rclavicle 1.19271e-014 -7.31528e-014
rhumerus -35.2877 42.1515 -83.3878
rradius 63.6799
rwrist -5.23172
rhand -9.53998 -32.0533
rfingers 7.12502
rthumb 16.4266 -61.3778
lclavicle 1.19271e-014 -7.31528e-014
lhumerus -12.4179 -73.8361 121.321
lradius 25.1099
lwrist 1.03335
lhand -20.6521 -25.2573
lfingers 7.12502
lthumb 5.71027 4.64579
rfemur -19.5273 22.5073 10.6211
rtibia 15.4986
rfoot -12.0904 -21.0123
rtoes -3.28968
lfemur -5.0635 -33.7119 -15.7435
ltibia -3.69406
lfoot -14.8453 42.707
ltoes 2.41993
805
root 0.826172 17.6659 8.54784 12.4053 -4.07051 -0.0511106
lowerback 16.1959 -9.14158 7.01858
upperback 2.64497 -10.2332 8.65571
thorax -5.68924 -5.08408 7.59215
lowerneck -17.3651 -6.09132 -3.59887
upperneck 29.4365 -7.11306 -2.37035
head 12.7321 -3.89002 -1.436
rclavicle 4.6118e-014 -1.74931e-014
rhumerus -35.4174 41.9869 -83.3052
rradius 63.41
rwrist -1.73747
rhand -11.2248 -30.7631
rfingers 7.12502
rthumb 14.8039 -60.2143
lclavicle 4.6118e-014 -1.74931e-014
lhumerus -12.571 -74.0937 121.405
lradius 25.1751
lwrist 1.18239
lhand -20.2407 -24.9457
lfingers 7.12502
lthumb 6.10739 4.9463
rfemur -19.5109 22.51 10.6557
rtibia 15.4715
rfoot -12.0656 -20.9933
rtoes -3.27102
lfemur -5.03765 -33.8192 -15.7241
ltibia -3.70253
lfoot -14.8195 42.8124
ltoes 2.30304
806
root 0.826627 17.665 8.54854 12.4026 -4.08666 -0.103429
lowerback 16.1471 -9.13729 7.02542
upperback 2.66159 -10.2359 8.64587
thorax -5.64795 -5.08651 7.56687
lowerneck -17.5244 -6.07711 -3.55368
upperneck 29.5612 -7.11248 -2.33685
head 12.8154 -3.87905 -1.44135
rclavicle 9.62118e-014 -9.54166e-014
rhumerus -35.6555 42.2503 -83.4196
rradius 63.4131
rwrist 1.38829
rhand -12.8982 -30.5248
rfingers 7.12502
rthumb 13.1913 -60.0875
lclavicle 9.62118e-014 -9.54166e-014
lhumerus -12.5889 -74.295 121.334
lradius 25.2605
lwrist 1.36811
lhand -20.1278 -24.9044
lfingers 7.12502
lthumb 6.21645 4.98439
rfemur -19.4825 22.5376 10.7185
rtibia 15.4378
rfoot -12.0555 -20.9813
rtoes -3.24119
lfemur -5.00669 -33.8485 -15.6777
ltibia -3.708
lfoot -14.9401 42.8449
ltoes 2.49621
807
root 0.827189 17.6644 8.54895 12.3988 -4.12012 -0.149522
lowerback 16.139 -9.11542 7.0298
upperback 2.66213 -10.2086 8.63623
thorax -5.64759 -5.07329 7.54662
lowerneck -17.6711 -6.08265 -3.40594
upperneck 29.6785 -7.11682 -2.48324
head 12.8799 -3.88332 -1.53176
rclavicle -3.97569e-015 4.92986e-014
rhumerus -36.026 42.6444 -83.6366
rradius 63.5724
rwrist 4.3575
rhand -14.3604 -30.7982
rfingers 7.12502
rthumb 11.7816 -60.4469
lclavicle -3.97569e-015 4.92986e-014
lhumerus -13.0078 -74.7339 121.62
lradius 25.3996
lwrist 1.26619
lhand -21.2596 -24.8061
lfingers 7.12502
lthumb 5.12365 5.11196
rfemur -19.4646 22.5702 10.7679
rtibia 15.4027
rfoot -12.051 -20.96
rtoes -3.19185
lfemur -4.98109 -33.8504 -15.6301
ltibia -3.7131
lfoot -15.1496 42.8406
ltoes 2.85595
808
root 0.828645 17.6643 8.54821 12.4036 -4.16074 -0.17169
lowerback 16.1497 -9.09929 7.03582
upperback 2.6455 -10.1839 8.62764
thorax -5.67592 -5.06079 7.53318
lowerneck -17.7757 -6.11642 -3.38014
upperneck 29.7755 -7.15176 -2.54489
head 12.9377 -3.90317 -1.5729
rclavicle 1.34378e-013 -2.54444e-014
rhumerus -36.3143 42.9241 -83.8204
rradius 64.6453
rwrist 6.18735
rhand -15.0488 -34.0165
rfingers 7.12502
rthumb 11.1177 -63.702
lclavicle 1.34378e-013 -2.54444e-014
lhumerus -13.6141 -75.0503 122.108
lradius 25.4982
lwrist 0.72673
lhand -23.2687 -24.5726
lfingers 7.12502
lthumb 3.18365 5.38338
rfemur -19.4752 22.5745 10.7772
rtibia 15.3739
rfoot -12.0345 -20.926
rtoes -3.23156
lfemur -4.98418 -33.8818 -15.597
ltibia -3.71906
lfoot -15.2404 42.8792
ltoes 3.06485
809
root 0.830279 17.6642 8.54736 12.4199 -4.2105 -0.173935
lowerback 16.1498 -9.10173 7.00258
upperback 2.63253 -10.1921 8.63118
thorax -5.68316 -5.06462 7.55782
lowerneck -17.8637 -6.10794 -3.39043
upperneck 29.823 -7.13141 -2.55089
head 12.9761 -3.89571 -1.57565
rclavicle -2.06736e-014 -1.11319e-014
rhumerus -36.7268 43.2164 -84.0348
rradius 63.1408
rwrist 16.0356
rhand -21.8047 -33.0406
rfingers 7.12502
rthumb 4.59735 -62.9707
lclavicle -2.06736e-014 -1.11319e-014
lhumerus -13.618 -74.8051 122.073
lradius 25.573
lwrist 0.581582
lhand -23.5434 -25.0254
lfingers 7.12502
lthumb 2.91835 4.93435
rfemur -19.5045 22.5866 10.755
rtibia 15.3589
rfoot -12.0416 -20.8965
rtoes -3.23607
lfemur -4.98566 -33.9755 -15.5942
ltibia -3.736
lfoot -15.3282 42.9889
ltoes 3.27792
810
root 0.831418 17.664 8.54612 12.4411 -4.27487 -0.179571
lowerback 16.1508 -9.09211 6.965
upperback 2.62484 -10.1857 8.6358
thorax -5.68519 -5.06132 7.5822
lowerneck -17.9996 -6.07056 -3.39287
upperneck 29.92 -7.08399 -2.51529
head 13.0465 -3.86946 -1.56311
rclavicle -4.77083e-014 1.36764e-013
rhumerus -36.1021 42.3372 -83.2916
rradius 64.0143
rwrist 16.5546
rhand -22.1356 -31.1294
rfingers 7.12502
rthumb 4.27787 -61.0661
lclavicle -4.77083e-014 1.36764e-013
lhumerus -13.4289 -74.705 121.849
lradius 25.7243
lwrist 1.06214
lhand -22.6716 -25.5528
lfingers 7.12502
lthumb 3.76026 4.3938
rfemur -19.5596 22.6283 10.7337
rtibia 15.3778
rfoot -12.0565 -20.8755
rtoes -3.18931
lfemur -4.98313 -34.0933 -15.5936
ltibia -3.74808
lfoot -15.5471 43.1331
ltoes 3.58317
